<?xml version="1.0" standalone="no"?><!DOCTYPE svg PUBLIC "-//W3C//DTD SVG 1.1//EN" "http://www.w3.org/Graphics/SVG/1.1/DTD/svg11.dtd"><svg class="icon" width="200px" height="200.00px" viewBox="0 0 1024 1024" version="1.1" xmlns="http://www.w3.org/2000/svg"><path fill="#707070" d="M734.5 913h-443a62.07 62.07 0 0 1-62-62V365a12 12 0 0 1 24 0v486a38 38 0 0 0 38 38h443a38 38 0 0 0 38-38V365a12 12 0 0 1 24 0v486a62.07 62.07 0 0 1-62 62z"  /><path fill="#707070" d="M826 377H196a62.07 62.07 0 0 1-62-62v-2a62.07 62.07 0 0 1 62-62h630a62.07 62.07 0 0 1 62 62v2a62.07 62.07 0 0 1-62 62zM196 275a38 38 0 0 0-38 38v2a38 38 0 0 0 38 38h630a38 38 0 0 0 38-38v-2a38 38 0 0 0-38-38z"  /><path fill="#707070" d="M431.5 140h159a62.07 62.07 0 0 1 62 62v48.9a12 12 0 0 1-24 0V202a38 38 0 0 0-38-38h-159a38 38 0 0 0-38 38v48.9a12 12 0 0 1-24 0V202a62.07 62.07 0 0 1 62-62zM635 799a12 12 0 0 1-12-12V489a12 12 0 0 1 24 0v298a12 12 0 0 1-12 12zM383 799a12 12 0 0 1-12-12V489a12 12 0 0 1 24 0v298a12 12 0 0 1-12 12z"  /></svg>