<?xml version="1.0" standalone="no"?><!DOCTYPE svg PUBLIC "-//W3C//DTD SVG 1.1//EN" "http://www.w3.org/Graphics/SVG/1.1/DTD/svg11.dtd"><svg class="icon" width="200px" height="200.00px" viewBox="0 0 1024 1024" version="1.1" xmlns="http://www.w3.org/2000/svg"><path fill="#707070" d="M512 64C265.6 64 64 265.6 64 512s201.6 448 448 448 448-201.6 448-448S758.4 64 512 64z m0 846.2C293 910.2 113.8 731 113.8 512S293 113.8 512 113.8 910.2 293 910.2 512 731 910.2 512 910.2z m0-448c-27.5 0-49.8 22.3-49.8 49.8 0 27.5 22.3 49.8 49.8 49.8s49.8-22.3 49.8-49.8c0-27.5-22.3-49.8-49.8-49.8z m-199.1 0c-27.5 0-49.8 22.3-49.8 49.8 0 27.5 22.3 49.8 49.8 49.8 27.5 0 49.8-22.3 49.8-49.8 0-27.5-22.3-49.8-49.8-49.8z m362.982 85.024a49.8 49.8 0 1 0 70.427-70.43 49.8 49.8 0 1 0-70.427 70.43z" /></svg>