<?xml version="1.0" standalone="no"?><!DOCTYPE svg PUBLIC "-//W3C//DTD SVG 1.1//EN" "http://www.w3.org/Graphics/SVG/1.1/DTD/svg11.dtd"><svg t="1568702888448" class="icon" viewBox="0 0 1024 1024" version="1.1" xmlns="http://www.w3.org/2000/svg" p-id="3558" xmlns:xlink="http://www.w3.org/1999/xlink" width="200" height="200"><defs><style type="text/css"></style></defs><path d="M137 137m50 0l650 0q50 0 50 50l0 50q0 50-50 50l-650 0q-50 0-50-50l0-50q0-50 50-50Z" fill="#1AA5FF" p-id="3559"></path><path d="M437 237m50 0l50 0q50 0 50 50l0 550q0 50-50 50l-50 0q-50 0-50-50l0-550q0-50 50-50Z" fill="#1AA5FF" p-id="3560"></path><path d="M137 137m50 0l50 0q50 0 50 50l0 150q0 50-50 50l-50 0q-50 0-50-50l0-150q0-50 50-50Z" fill="#1AA5FF" p-id="3561"></path><path d="M737 137m50 0l50 0q50 0 50 50l0 150q0 50-50 50l-50 0q-50 0-50-50l0-150q0-50 50-50Z" fill="#1AA5FF" p-id="3562"></path></svg>